<?xml version="1.0" standalone="no"?>
<!DOCTYPE svg PUBLIC "-//W3C//DTD SVG 20010904//EN"
 "http://www.w3.org/TR/2001/REC-SVG-20010904/DTD/svg10.dtd">
<svg version="1.0" xmlns="http://www.w3.org/2000/svg"
 width="1468.000000pt" height="1468.000000pt" viewBox="0 0 1468.000000 1468.000000"
 preserveAspectRatio="xMidYMid meet">
<metadata>
Created by potrace 1.14, written by Peter Selinger 2001-2017
</metadata>
<g transform="translate(0.000000,1468.000000) scale(0.100000,-0.100000)"
fill="#000000" stroke="none">
<path d="M6016 13872 c-3 -2 -54 -6 -113 -8 -184 -7 -338 -21 -362 -33 -10 -6
-21 -8 -24 -4 -7 7 -193 -27 -247 -45 -18 -5 -40 -9 -96 -16 -22 -2 -60 -10
-84 -16 -24 -7 -65 -14 -90 -17 -25 -2 -46 -9 -48 -14 -2 -5 -37 -9 -78 -9
-41 0 -74 -4 -74 -10 0 -5 -12 -9 -27 -8 -31 1 -118 -10 -145 -18 -10 -3 -35
-7 -55 -9 -44 -5 -128 -21 -128 -25 0 -1 -17 -4 -38 -5 -54 -5 -86 -11 -134
-24 -23 -6 -45 -11 -50 -10 -4 1 -10 1 -13 0 -3 -2 -21 -4 -39 -7 -19 -2 -37
-8 -40 -12 -4 -4 -24 -8 -46 -8 -22 0 -57 -4 -77 -7 -21 -4 -53 -9 -70 -12
-18 -3 -62 -12 -98 -20 -36 -9 -91 -17 -122 -19 -31 -3 -66 -9 -77 -15 -11 -6
-34 -11 -51 -11 -17 0 -63 -6 -103 -14 -40 -8 -93 -17 -119 -21 -26 -3 -55
-13 -63 -21 -10 -10 -20 -12 -31 -6 -10 5 -35 5 -63 0 -68 -14 -82 -16 -123
-22 -100 -15 -114 -18 -122 -27 -6 -5 -32 -9 -59 -9 -26 0 -58 -5 -69 -11 -11
-6 -41 -12 -67 -14 -25 -1 -53 -5 -61 -9 -8 -3 -31 -8 -50 -10 -19 -2 -42 -6
-50 -9 -8 -3 -35 -8 -60 -11 -97 -13 -147 -23 -185 -40 -22 -10 -53 -20 -70
-23 -37 -6 -101 -38 -112 -56 -4 -8 -23 -22 -40 -32 -18 -11 -33 -22 -33 -26
0 -3 -18 -27 -40 -52 -22 -25 -40 -50 -40 -56 0 -7 -6 -22 -14 -34 -8 -12 -17
-33 -20 -47 -2 -14 -12 -50 -21 -80 -10 -30 -19 -64 -20 -75 -2 -11 -14 -48
-28 -82 -15 -36 -21 -63 -15 -65 6 -2 1 -20 -11 -43 -11 -22 -21 -50 -21 -62
0 -12 -5 -25 -11 -29 -8 -5 -8 -8 0 -13 7 -5 4 -19 -10 -45 -11 -21 -18 -43
-16 -49 3 -7 -2 -28 -10 -47 -9 -19 -17 -53 -20 -75 -2 -22 -13 -62 -25 -90
-11 -27 -21 -61 -21 -75 0 -13 -6 -34 -14 -46 -7 -12 -15 -37 -16 -55 -1 -19
-10 -40 -19 -47 -10 -7 -18 -19 -18 -26 0 -14 -75 -66 -96 -66 -8 0 -34 -10
-57 -22 -23 -11 -55 -22 -72 -24 -16 -1 -41 -6 -55 -12 -14 -5 -36 -9 -50 -8
-14 1 -29 -1 -35 -5 -15 -11 -269 -64 -355 -74 -14 -2 -36 -7 -50 -13 -14 -5
-50 -13 -80 -17 -30 -4 -60 -12 -67 -17 -7 -6 -32 -11 -55 -13 -24 -1 -53 -5
-64 -8 -12 -3 -39 -8 -60 -12 -45 -8 -69 -13 -69 -15 0 -1 -11 -3 -25 -6 -14
-2 -45 -8 -70 -13 -25 -5 -52 -10 -60 -10 -24 0 -157 -39 -196 -57 -39 -18
-134 -109 -134 -128 0 -6 -8 -24 -17 -41 -20 -36 -22 -147 -4 -220 6 -27 12
-57 12 -65 0 -8 6 -25 12 -38 8 -16 8 -25 0 -33 -15 -15 -5 -39 13 -32 18 7
19 -23 2 -34 -14 -9 -20 -43 -8 -43 4 0 8 -15 9 -32 0 -18 3 -44 6 -58 4 -14
8 -43 10 -65 4 -35 18 -114 40 -219 3 -16 9 -34 13 -40 8 -13 13 -49 15 -93 0
-18 4 -33 9 -33 5 0 8 -15 6 -32 -2 -20 3 -37 11 -44 10 -8 11 -15 2 -32 -8
-15 -8 -23 0 -27 6 -4 8 -14 4 -23 -3 -8 -1 -38 4 -66 6 -28 13 -67 15 -86 2
-19 7 -46 10 -60 4 -14 9 -42 11 -62 3 -20 9 -47 14 -60 4 -13 7 -33 6 -45 -1
-13 2 -23 6 -23 4 0 9 -17 13 -37 3 -21 8 -49 11 -63 2 -14 6 -38 7 -55 2 -16
7 -33 11 -36 13 -10 15 -43 3 -51 -8 -6 -7 -11 3 -17 17 -11 24 -41 9 -41 -9
0 -6 -39 9 -105 2 -11 6 -36 8 -55 2 -19 4 -35 5 -35 2 0 8 -32 14 -70 2 -16
12 -66 21 -110 9 -44 17 -90 19 -102 1 -12 7 -28 13 -35 6 -7 9 -22 7 -33 -1
-10 1 -24 6 -30 5 -6 11 -39 14 -74 2 -34 10 -68 17 -77 9 -11 9 -18 1 -26 -8
-8 -8 -17 -1 -30 6 -10 7 -27 4 -38 -3 -11 -2 -27 4 -37 5 -10 12 -34 14 -53
3 -19 6 -36 7 -37 2 -2 3 -6 4 -10 8 -37 33 -83 44 -83 7 0 10 -4 7 -10 -4 -6
1 -7 11 -3 12 4 15 2 12 -8 -5 -16 38 -49 63 -49 9 0 19 -10 23 -23 3 -13 27
-37 56 -56 27 -18 50 -37 50 -42 0 -5 7 -9 15 -9 8 0 15 -4 15 -10 0 -5 9 -10
19 -10 12 0 28 -13 38 -31 15 -25 23 -30 45 -26 25 3 33 -3 29 -26 -2 -10 25
-37 36 -37 5 0 15 -9 23 -20 8 -11 23 -20 33 -20 10 0 16 -4 13 -8 -6 -10 68
-54 77 -46 3 4 9 -5 13 -20 3 -14 12 -27 20 -27 8 -1 19 -3 24 -4 6 -1 17 -3
25 -4 8 0 15 -11 15 -23 0 -16 15 -33 50 -56 28 -17 50 -37 50 -42 0 -6 7 -10
15 -10 8 0 15 -4 15 -10 0 -5 11 -10 25 -10 18 0 25 -5 25 -18 0 -18 37 -45
56 -41 22 4 36 -2 31 -14 -7 -17 13 -43 41 -51 12 -4 22 -14 22 -22 0 -8 5
-14 11 -14 5 0 26 -12 45 -27 18 -16 38 -29 44 -29 5 -1 15 -2 20 -3 6 0 10
-7 10 -15 0 -19 23 -36 54 -38 16 -2 26 -8 26 -18 0 -20 41 -55 60 -51 8 1 12
0 8 -4 -8 -8 36 -55 52 -55 5 0 10 -4 10 -10 0 -5 11 -12 24 -16 14 -3 32 -17
41 -30 9 -14 25 -24 40 -24 22 0 53 -33 47 -52 -1 -3 12 -9 28 -13 17 -4 30
-13 30 -21 0 -8 3 -14 8 -14 4 0 21 -12 37 -26 17 -14 36 -29 43 -33 11 -6 9
-15 -8 -44 -12 -20 -19 -41 -16 -46 9 -14 -4 -41 -20 -41 -8 0 -14 -6 -15 -12
-2 -30 -8 -49 -27 -75 -19 -27 -34 -63 -30 -73 1 -3 -5 -18 -15 -35 -34 -63
-71 -151 -69 -163 2 -8 -3 -21 -11 -30 -15 -18 -77 -141 -77 -154 0 -4 -11
-32 -25 -62 -14 -30 -25 -63 -25 -74 0 -11 -8 -30 -18 -43 -10 -13 -27 -45
-38 -71 -10 -27 -22 -48 -26 -48 -4 0 -5 -7 -2 -15 3 -7 -6 -29 -20 -48 -14
-19 -26 -39 -26 -44 0 -11 -16 -44 -35 -73 -5 -8 -11 -25 -13 -38 -1 -12 -14
-39 -28 -60 -15 -22 -24 -46 -21 -59 3 -15 -1 -23 -9 -23 -17 0 -36 -34 -29
-53 3 -7 -1 -19 -9 -26 -8 -7 -22 -35 -31 -62 -9 -27 -20 -49 -24 -49 -4 0 -8
-6 -8 -12 0 -7 -14 -42 -32 -77 -17 -36 -31 -77 -31 -92 0 -16 -7 -32 -16 -37
-9 -5 -22 -25 -29 -43 -8 -19 -21 -54 -30 -78 -9 -25 -25 -57 -36 -72 -10 -15
-19 -34 -19 -42 0 -9 -5 -19 -10 -22 -6 -3 -10 -15 -10 -25 0 -10 -11 -32 -25
-48 -13 -16 -22 -31 -19 -34 4 -4 -40 -42 -79 -69 -5 -4 -11 -24 -13 -46 -3
-31 2 -44 22 -66 13 -15 28 -28 32 -28 49 -8 77 -7 89 2 10 9 18 8 31 -5 10
-9 22 -13 26 -9 3 4 19 8 34 9 37 4 115 33 123 46 5 7 15 3 29 -9 23 -22 57
-24 105 -4 16 7 38 10 48 7 11 -2 17 -2 14 1 -3 3 7 16 23 29 16 14 36 46 46
72 21 57 38 78 79 97 16 8 35 25 41 38 5 12 15 21 23 19 7 -1 31 13 53 32 23
20 45 33 51 29 6 -3 7 -2 4 4 -3 5 17 27 45 49 29 21 62 49 75 62 13 12 27 22
31 22 4 0 24 14 45 31 21 17 44 32 52 33 8 1 25 13 39 27 30 30 54 49 60 49 3
0 19 14 34 30 16 17 34 30 41 30 6 0 11 5 11 10 0 6 7 10 15 10 8 0 15 5 15
10 0 6 8 10 18 10 10 0 44 24 75 54 31 30 57 52 57 48 1 -4 10 4 21 17 23 28
67 53 80 45 5 -3 6 1 4 8 -3 8 8 21 27 32 18 11 49 34 68 53 19 18 39 33 45
33 6 0 21 14 33 30 13 17 27 30 33 30 6 0 28 14 48 31 74 62 81 67 81 61 0 -4
4 -2 8 4 4 6 27 24 52 41 25 17 65 49 89 72 24 23 48 41 53 41 4 0 11 0 14 -1
3 0 14 11 25 25 25 31 39 32 69 6 13 -11 34 -20 47 -20 13 0 22 -4 19 -9 -9
-14 4 -41 20 -41 8 0 14 -4 14 -9 0 -5 15 -16 34 -25 18 -9 41 -27 50 -40 11
-18 22 -24 40 -20 18 3 25 -1 30 -19 8 -31 43 -52 62 -36 8 6 14 8 15 3 2 -27
9 -45 21 -57 23 -22 78 -59 78 -51 0 4 9 -5 20 -19 11 -14 30 -27 42 -29 11
-2 26 -12 32 -23 18 -32 39 -44 58 -34 10 5 19 6 20 2 0 -4 2 -12 3 -18 2 -5
3 -15 4 -22 0 -6 18 -22 39 -35 20 -12 54 -38 74 -56 21 -19 41 -31 46 -28 12
7 26 -6 40 -37 8 -19 18 -27 27 -23 21 8 45 -3 45 -21 0 -34 58 -62 121 -58
52 3 79 10 136 36 24 10 46 19 51 19 11 0 95 41 102 49 5 6 20 11 45 15 6 1
26 11 45 23 19 11 57 28 84 37 26 9 57 21 67 26 21 12 39 -12 32 -41 -3 -11 0
-26 7 -34 10 -11 9 -18 -4 -30 -11 -12 -13 -21 -7 -34 6 -10 6 -23 0 -32 -12
-19 -11 -96 2 -120 7 -15 7 -24 -1 -34 -7 -9 -8 -15 0 -20 13 -8 13 -42 0 -47
-13 -4 -16 -72 -7 -155 4 -39 3 -63 -3 -63 -6 0 -10 -46 -10 -112 0 -62 -1
-149 -1 -193 -1 -44 -1 -89 0 -100 3 -48 0 -85 -8 -89 -12 -8 -4 -177 9 -190
6 -6 5 -15 -5 -26 -19 -21 -24 -162 -7 -183 12 -14 7 -47 -7 -47 -7 0 -10 -27
-10 -107 0 -66 0 -73 -4 -213 -2 -65 0 -120 6 -128 6 -8 5 -22 -4 -41 -15 -29
-17 -139 -4 -180 4 -13 1 -28 -7 -38 -16 -19 -20 -165 -5 -175 7 -4 6 -16 -1
-35 -14 -33 -22 -182 -11 -188 4 -3 5 -14 2 -25 -3 -11 0 -27 7 -35 11 -13 10
-18 -3 -28 -19 -14 -26 -67 -16 -120 3 -20 2 -40 -3 -43 -5 -4 -5 -10 0 -17 5
-7 7 -21 4 -32 -3 -11 -7 -65 -8 -120 -1 -55 -3 -104 -4 -110 -10 -35 -14
-157 -5 -177 4 -9 3 -23 -1 -30 -5 -7 -9 -44 -11 -82 -1 -38 -7 -74 -12 -79
-7 -7 -5 -14 5 -22 14 -10 15 -20 4 -88 -7 -43 -10 -99 -7 -126 4 -30 1 -53
-6 -60 -8 -8 -8 -11 1 -11 13 0 16 -32 5 -44 -5 -4 -9 -56 -11 -114 -1 -59 -4
-146 -6 -195 -2 -48 0 -90 5 -93 14 -8 11 -41 -4 -47 -16 -6 -20 -142 -6 -170
7 -11 6 -25 -3 -40 -6 -12 -13 -27 -14 -32 -1 -6 -27 -37 -58 -68 -31 -32 -56
-64 -56 -72 0 -7 -5 -15 -11 -17 -9 -3 -9 -9 0 -25 6 -12 9 -28 6 -35 -6 -15
51 -85 61 -75 4 3 16 1 28 -6 36 -20 99 -33 146 -30 66 4 95 9 106 16 6 3 22
8 36 11 15 2 36 9 47 16 12 6 21 8 21 4 0 -3 24 7 53 24 28 16 57 31 62 32 9
3 32 34 61 82 6 10 13 16 15 14 2 -3 4 12 3 32 -1 20 6 52 14 72 11 24 17 72
18 150 3 163 2 158 20 186 9 13 14 27 11 31 -4 3 -2 14 4 25 6 11 12 29 14 41
3 12 9 43 15 68 6 25 10 50 9 55 -2 12 24 74 31 74 3 0 7 19 9 42 1 23 6 47
10 53 5 5 7 18 6 28 -3 17 15 83 35 132 15 37 22 60 27 90 2 17 10 50 18 75 8
25 16 57 19 72 3 15 7 32 11 38 3 5 8 22 10 37 9 62 33 170 45 198 7 17 14 44
16 60 3 17 8 37 11 45 3 8 7 28 9 43 1 16 6 34 11 40 5 7 10 26 12 42 2 17 6
35 11 40 8 11 22 75 26 118 1 16 7 34 13 40 6 6 11 19 11 29 0 10 4 26 9 36
14 29 33 93 28 98 -2 3 4 35 15 72 11 37 22 81 25 97 3 17 9 35 13 40 4 6 11
37 15 70 4 33 11 65 16 71 14 17 39 120 39 159 0 19 4 35 9 35 5 0 8 13 6 29
-2 18 1 31 9 34 8 3 14 18 14 33 0 16 5 30 11 32 6 2 9 7 6 12 -5 9 41 197 53
215 4 5 7 24 7 40 0 17 3 32 7 35 6 5 15 43 25 110 3 19 9 37 13 40 8 5 28 85
35 138 2 18 7 43 11 55 4 12 9 29 10 37 1 8 9 34 18 57 8 22 17 58 20 80 2 21
5 38 6 38 1 0 3 9 6 20 2 11 6 35 10 52 3 18 10 33 14 33 7 0 17 36 24 86 1
11 6 26 11 34 4 7 9 27 10 44 3 40 30 138 36 132 3 -3 6 9 7 27 1 18 7 47 13
64 6 18 8 37 5 42 -4 5 -1 22 6 38 13 31 15 38 17 54 0 5 4 8 9 6 4 -3 8 12 8
34 1 21 5 46 9 56 9 19 13 34 19 73 8 40 64 238 72 251 5 8 3 9 -6 4 -16 -10
-4 33 16 56 8 9 12 18 8 21 -3 3 2 22 10 42 8 20 15 40 15 44 0 24 15 120 21
137 4 11 8 22 8 25 0 3 6 19 12 35 7 17 13 37 15 45 2 8 9 31 14 50 6 19 11
49 11 65 0 17 5 36 12 43 7 7 9 12 5 12 -4 0 -3 9 3 19 5 11 12 37 15 58 3 21
13 68 22 105 l17 66 66 31 c36 17 69 31 72 31 4 0 30 13 58 30 28 16 63 33 78
36 15 4 45 16 67 27 22 11 40 19 40 17 0 -2 19 7 43 19 23 12 42 19 42 16 0
-3 12 3 27 12 15 10 27 17 28 15 0 -2 26 8 58 22 32 15 62 26 68 26 6 0 25 10
42 22 18 13 32 21 32 20 0 -5 56 17 109 43 27 14 53 22 57 19 5 -3 9 -1 9 3 0
5 19 17 43 27 39 17 77 34 182 82 22 11 42 19 45 20 3 0 22 8 42 17 21 10 42
17 48 17 5 0 10 5 10 10 0 6 6 10 13 10 7 0 29 9 49 19 19 11 38 18 40 15 3
-2 11 2 18 11 7 8 19 15 26 15 13 0 67 23 214 93 25 11 48 21 52 21 3 1 10 4
14 9 17 16 29 5 31 -28 1 -19 -3 -35 -8 -35 -5 0 -9 -10 -9 -22 0 -13 0 -36 0
-53 -1 -25 2 -58 9 -108 1 -5 6 -5 11 -2 6 3 10 -1 10 -9 0 -8 -9 -20 -20 -26
-18 -9 -20 -20 -18 -91 0 -44 5 -82 10 -85 12 -8 10 -34 -5 -49 -14 -14 -17
-221 -3 -244 14 -23 -57 -91 -96 -91 -21 0 -97 -86 -105 -119 -3 -14 -11 -32
-17 -40 -20 -26 -35 -84 -26 -102 7 -11 5 -20 -4 -28 -16 -14 -36 -87 -32
-116 2 -11 -6 -38 -17 -59 -11 -21 -21 -58 -22 -81 -1 -23 -5 -47 -9 -53 -4
-7 -2 -20 3 -29 6 -10 11 -14 11 -9 0 6 15 -7 34 -27 19 -21 40 -35 48 -32 8
3 23 -7 37 -26 18 -24 28 -29 46 -25 18 5 24 1 29 -17 3 -12 19 -28 38 -36 18
-8 48 -26 65 -40 18 -14 37 -26 42 -26 5 0 20 -9 33 -20 13 -11 28 -22 33 -24
6 -2 27 -13 49 -25 21 -11 47 -25 57 -31 11 -5 19 -13 19 -17 0 -5 7 -8 15 -8
8 0 15 -4 15 -9 0 -9 27 -22 43 -20 5 1 21 -10 35 -24 15 -13 38 -27 52 -30
14 -4 36 -17 50 -29 14 -13 34 -25 45 -26 11 -2 24 -10 28 -18 4 -7 25 -18 47
-24 22 -6 39 -16 37 -22 -1 -6 15 -16 35 -22 21 -6 45 -21 53 -32 8 -12 25
-21 38 -21 13 -1 36 -13 50 -27 15 -15 32 -24 38 -20 6 3 21 -6 33 -21 20 -24
32 -30 80 -34 5 -1 7 -4 3 -7 -10 -10 36 -42 52 -36 7 3 19 -2 25 -10 13 -18
76 -52 76 -41 0 5 6 0 14 -9 13 -18 100 -59 120 -57 25 3 37 -2 31 -11 -10
-15 84 -10 255 14 8 1 40 15 70 31 30 16 58 28 61 27 8 -2 80 77 96 105 17 31
-1 101 -35 134 -27 26 -62 69 -57 69 14 0 -41 77 -73 104 -8 6 -27 23 -43 39
-15 15 -32 27 -37 27 -5 0 -17 10 -29 23 -27 30 -75 67 -88 67 -6 0 -19 11
-29 25 -10 14 -25 25 -33 25 -8 0 -20 6 -28 13 -7 6 -45 34 -84 60 -58 39 -72
55 -82 87 -7 22 -16 37 -20 34 -5 -3 -9 4 -9 16 0 12 -14 41 -30 65 -16 24
-30 48 -30 53 0 5 -7 15 -15 22 -8 7 -12 16 -9 21 3 5 0 9 -6 9 -7 0 -24 12
-38 28 -15 15 -49 38 -77 52 -27 14 -52 27 -55 30 -3 3 -44 25 -92 50 -49 25
-88 49 -88 53 0 5 -4 6 -9 3 -5 -3 -14 1 -21 9 -7 8 -19 15 -26 15 -8 0 -14 5
-14 10 0 6 -5 10 -11 10 -7 0 -43 18 -81 40 -39 22 -76 40 -84 40 -8 0 -14 5
-14 10 0 6 -7 10 -15 10 -8 0 -15 5 -15 10 0 6 -7 10 -15 10 -8 0 -15 5 -15
10 0 6 -9 10 -20 10 -11 0 -20 5 -20 10 0 6 -4 10 -9 10 -5 0 -34 14 -64 32
l-56 32 5 289 c3 160 9 309 13 331 4 23 7 96 6 164 -1 89 2 122 11 122 7 0 38
13 69 30 31 17 61 30 66 30 5 0 36 13 69 29 33 16 60 27 60 25 0 -3 10 2 22
10 28 20 48 20 48 2 0 -8 4 -17 9 -20 4 -3 7 8 5 25 -3 26 -1 30 13 25 10 -4
14 -4 10 0 -4 4 32 25 81 46 48 22 130 60 182 85 52 25 100 46 105 47 6 2 37
15 70 30 33 15 82 37 110 48 27 11 54 23 60 28 5 4 28 13 50 20 22 7 49 18 60
24 11 7 70 34 131 59 62 26 125 54 140 62 16 8 35 15 42 15 6 0 12 4 12 9 0 5
15 13 33 16 17 4 40 14 50 23 9 8 17 11 17 7 0 -4 8 -1 18 8 9 8 26 17 37 19
11 1 23 6 26 11 3 4 14 9 25 11 11 2 49 17 84 34 36 16 84 38 108 48 23 10 42
21 42 25 0 4 15 11 33 14 17 4 54 18 80 32 l49 24 25 -26 c14 -14 33 -24 42
-23 10 2 15 -4 15 -17 0 -11 11 -29 25 -40 45 -36 91 -84 91 -95 0 -5 7 -10
16 -10 8 0 13 -4 10 -9 -4 -5 3 -7 14 -4 11 3 20 0 20 -6 0 -21 3 -26 41 -63
23 -23 44 -35 53 -32 10 4 15 -2 18 -18 2 -12 17 -32 35 -43 18 -11 32 -23 33
-28 0 -14 74 -76 94 -79 12 -2 22 -12 24 -23 4 -22 56 -72 85 -81 9 -3 17 -10
17 -16 0 -21 39 -45 65 -40 23 4 25 2 21 -21 -3 -19 3 -32 27 -54 18 -15 40
-30 50 -33 10 -3 19 -9 20 -15 1 -15 36 -50 50 -51 7 -1 18 -2 26 -3 8 -1 11
-7 7 -17 -7 -18 58 -84 84 -84 8 0 21 -13 28 -30 7 -16 22 -32 33 -35 12 -4
18 -13 15 -21 -5 -13 6 -19 27 -15 4 1 15 -12 25 -29 12 -21 25 -30 43 -30 21
0 28 -6 33 -26 7 -28 72 -93 94 -94 6 0 12 -6 12 -13 0 -21 36 -49 57 -45 13
2 19 -4 22 -22 4 -31 54 -80 81 -80 11 0 23 -8 26 -17 10 -31 27 -63 32 -59 4
5 29 -15 75 -62 18 -18 42 -34 53 -36 10 -2 21 -11 23 -21 5 -26 73 -90 91
-86 8 1 12 0 8 -4 -10 -11 42 -64 58 -58 8 3 18 -5 24 -21 13 -34 37 -59 78
-80 19 -10 32 -24 32 -35 0 -12 10 -21 25 -25 14 -4 23 -11 20 -16 -3 -6 -2
-10 2 -10 11 0 57 -43 77 -71 12 -18 18 -20 30 -10 12 10 16 9 24 -6 5 -10 8
-23 5 -29 -4 -13 64 -77 76 -70 11 7 36 -22 28 -31 -4 -3 3 -14 14 -24 16 -14
26 -16 46 -8 24 9 25 8 19 -16 -5 -20 1 -33 31 -63 21 -21 43 -37 50 -35 6 2
19 -12 28 -31 10 -20 21 -36 25 -36 5 0 32 -22 60 -50 32 -31 60 -50 74 -50
18 0 24 -6 24 -23 0 -29 46 -77 72 -77 11 0 20 -6 20 -14 0 -17 78 -100 104
-109 10 -4 16 -10 12 -14 -9 -10 25 -43 45 -43 17 0 20 -22 6 -36 -11 -12 -8
-44 5 -44 6 0 9 -3 5 -6 -8 -8 18 -34 34 -34 7 0 20 -7 29 -15 8 -8 40 -16 70
-18 51 -4 55 -6 62 -34 7 -26 15 -32 65 -45 84 -22 224 -11 277 22 20 12 36
18 36 13 0 -4 5 0 11 10 6 9 14 15 18 13 4 -3 8 15 10 39 1 34 -3 48 -22 67
-24 24 -57 43 -94 53 -16 4 -27 23 -43 73 -13 37 -22 79 -22 95 0 15 -4 25 -9
22 -5 -4 -9 3 -9 14 0 11 -10 46 -22 78 -12 32 -21 62 -20 67 2 5 -2 21 -7 35
-6 14 -13 38 -15 54 -7 42 -18 71 -28 78 -6 4 -12 19 -13 35 -2 16 -8 44 -14
62 -5 18 -7 40 -4 48 3 8 1 14 -4 14 -9 0 -34 75 -39 117 -2 12 -8 31 -14 43
-6 12 -13 29 -15 38 -2 9 -11 37 -20 62 -15 41 -26 85 -41 165 -3 17 -11 39
-17 50 -7 11 -12 25 -13 30 0 6 -4 17 -7 25 -6 15 -27 106 -31 133 -1 8 -8 22
-15 31 -7 8 -10 19 -7 25 3 5 1 11 -5 13 -5 2 -12 17 -13 33 -2 17 -6 38 -10
47 -4 9 -9 23 -10 32 -1 8 -5 19 -9 22 -4 4 -7 17 -7 29 0 11 -4 25 -10 31 -5
5 -11 23 -12 39 -1 17 -6 32 -10 35 -4 3 -8 22 -10 42 -1 20 -6 34 -10 32 -4
-3 -9 5 -10 18 -2 33 -3 39 -18 73 -7 17 -19 62 -27 100 -8 39 -16 75 -18 80
-1 6 -6 20 -10 33 -4 12 -11 22 -16 22 -5 0 -9 15 -9 34 0 18 -7 52 -15 75 -8
22 -12 41 -9 41 2 0 -2 10 -10 23 -15 22 -52 161 -49 185 0 6 -3 12 -8 12 -4
0 -11 16 -15 35 -3 19 -11 35 -16 35 -5 0 -8 10 -7 23 2 12 0 28 -4 34 -5 7
-10 23 -12 34 -7 37 -27 93 -38 107 -5 6 -7 12 -4 12 3 0 -3 33 -15 73 -11 39
-21 79 -23 87 -2 8 -8 30 -14 48 -5 17 -7 32 -4 32 3 0 1 6 -5 13 -6 7 -13 27
-17 44 -3 18 -10 45 -16 60 -6 15 -10 28 -9 28 1 0 -4 14 -10 30 -7 17 -14 46
-17 65 -3 19 -9 40 -13 45 -4 6 -13 33 -20 60 -7 28 -16 55 -21 60 -4 6 -8 26
-10 45 -2 19 -6 40 -10 45 -4 6 -9 26 -11 45 -1 19 -6 37 -9 40 -8 7 -40 109
-46 145 -3 17 -6 34 -6 39 -1 6 14 18 33 28 73 37 175 82 188 81 6 0 12 3 12
8 0 5 6 9 14 9 7 0 34 12 60 26 26 14 53 23 61 20 8 -3 15 -2 15 3 0 8 64 41
173 90 204 91 227 102 227 109 0 4 11 8 24 8 13 1 36 9 52 17 64 35 157 77
171 77 6 0 16 7 23 15 6 8 15 13 18 12 13 -4 102 35 102 44 0 6 4 8 8 5 5 -3
23 4 40 15 18 10 37 19 43 19 6 0 33 11 61 25 27 14 54 25 59 25 6 0 36 12 67
26 101 47 142 63 142 58 0 -3 7 2 16 10 8 9 22 16 30 16 8 0 14 5 14 10 0 6 9
10 20 10 11 0 20 3 20 8 0 4 14 22 30 41 18 20 30 45 30 62 0 15 4 30 9 33 4
3 6 16 4 30 -3 13 0 27 6 30 6 4 11 22 11 39 0 18 7 55 16 82 8 28 17 79 20
115 3 36 8 72 11 80 3 8 7 35 9 60 3 24 8 47 12 50 4 3 8 38 10 79 2 41 7 81
11 89 13 23 -9 94 -31 100 -10 2 -18 8 -18 12 0 6 -35 20 -43 17 -1 0 -12 5
-24 12 -13 6 -42 14 -65 17 -24 3 -54 9 -68 14 -14 4 -54 14 -90 21 -36 6 -70
16 -77 21 -7 6 -16 7 -21 4 -5 -3 -21 2 -36 10 -16 7 -39 14 -52 14 -14 0 -59
9 -101 20 -79 22 -193 47 -253 56 -19 3 -39 9 -45 13 -5 4 -32 9 -60 10 -27 2
-52 6 -55 11 -3 4 -18 10 -35 13 -82 15 -105 20 -160 34 -33 8 -77 17 -98 20
-20 3 -40 9 -43 14 -3 5 -18 9 -33 9 -15 0 -31 3 -35 8 -4 4 -11 7 -14 7 -4 0
-29 7 -55 14 -34 10 -51 21 -57 36 -9 23 -6 122 6 185 3 19 8 58 9 87 2 29 6
57 9 62 3 5 8 51 12 102 3 51 10 101 15 111 5 9 9 21 8 25 -3 18 2 34 9 30 4
-3 7 14 7 36 -1 23 5 62 12 87 7 25 13 66 13 91 0 25 3 49 7 53 4 3 8 20 9 37
1 17 8 37 14 45 7 8 10 14 6 14 -3 0 -1 12 5 27 5 15 12 58 14 96 3 38 8 74
12 80 6 10 9 33 15 97 0 8 4 20 8 25 7 10 14 43 25 120 4 22 8 47 10 55 3 8 7
40 11 70 3 30 9 71 13 91 6 24 4 44 -5 60 -7 13 -10 27 -8 31 5 8 -6 24 -39
57 -15 16 -78 32 -182 46 -16 3 -55 9 -85 15 -30 6 -77 13 -105 16 -27 3 -53
8 -57 10 -4 3 -26 7 -50 9 -24 3 -63 8 -88 12 -25 4 -52 8 -60 9 -114 15 -244
35 -250 39 -4 3 -30 5 -56 6 -27 1 -53 5 -59 9 -5 3 -26 6 -45 5 -19 0 -46 3
-60 8 -14 5 -45 11 -70 13 -25 3 -52 7 -60 10 -8 4 -31 8 -50 10 -19 2 -51 7
-70 10 -19 4 -42 8 -50 9 -66 11 -92 16 -140 25 -30 6 -73 13 -95 15 -22 3
-56 8 -75 11 -19 3 -46 7 -60 9 -87 13 -126 18 -131 17 -4 -1 -22 3 -40 9 -19
5 -52 12 -74 15 -22 3 -51 8 -65 10 -31 6 -90 14 -149 20 -108 11 -125 13
-140 19 -9 4 -34 8 -56 11 -22 3 -60 9 -85 14 -25 4 -76 13 -115 19 -38 6 -88
14 -110 17 -43 8 -91 14 -115 15 -8 0 -22 3 -30 7 -49 19 -258 16 -323 -4 -11
-3 -53 -6 -95 -6 -43 -1 -82 -4 -87 -9 -6 -4 -44 -8 -85 -10 -41 -1 -79 -4
-85 -8 -5 -3 -26 -6 -45 -7 -45 -2 -238 -12 -415 -22 -77 -4 -146 -11 -152
-15 -7 -5 -17 -6 -22 -3 -5 4 -56 9 -113 12 -110 5 -134 8 -158 17 -8 3 -42 8
-75 11 -88 8 -137 15 -165 23 -14 3 -36 7 -50 9 -22 1 -145 23 -222 39 -16 3
-40 7 -55 10 -16 2 -55 8 -88 14 -94 15 -198 30 -256 36 -30 4 -61 9 -69 11
-8 3 -35 8 -60 11 -25 3 -50 9 -56 14 -6 5 -13 7 -16 4 -5 -5 -98 7 -143 18
-11 3 -49 8 -85 12 -36 4 -68 9 -72 11 -4 3 -23 5 -43 6 -20 1 -38 5 -41 10
-3 4 -21 8 -40 8 -19 0 -81 9 -137 20 -115 23 -169 32 -312 56 -173 28 -219
34 -275 40 -30 3 -62 7 -70 10 -8 3 -105 7 -215 10 -110 3 -217 6 -237 8 -21
2 -40 1 -42 -2z m6514 -4777 c0 -19 5 -35 11 -35 7 0 10 -12 7 -30 -3 -21 0
-30 9 -30 10 0 13 -9 10 -30 -3 -18 0 -34 9 -41 8 -7 12 -20 8 -31 -3 -10 0
-25 6 -33 6 -7 12 -27 12 -44 1 -17 4 -31 8 -31 3 0 12 -24 19 -52 7 -29 21
-78 31 -108 24 -75 41 -132 44 -150 2 -8 5 -22 8 -30 7 -18 33 -103 34 -110 0
-3 3 -12 6 -20 18 -50 69 -229 71 -248 0 -12 5 -22 9 -22 4 0 8 -10 8 -22 0
-13 11 -54 24 -93 13 -38 22 -73 19 -77 -2 -5 1 -8 6 -8 6 0 11 -9 11 -20 0
-11 7 -37 15 -57 8 -20 18 -50 21 -67 3 -17 9 -33 13 -36 4 -3 11 -25 15 -50
4 -25 14 -56 22 -69 9 -12 13 -32 11 -43 -3 -11 0 -21 9 -25 8 -3 14 -19 14
-39 0 -27 3 -32 16 -27 14 5 16 1 10 -30 -5 -29 -4 -37 8 -37 10 0 13 -9 11
-30 -3 -21 0 -30 10 -30 19 0 29 -18 17 -33 -18 -21 -17 -26 2 -40 13 -10 17
-21 13 -36 -3 -15 0 -24 9 -28 8 -3 14 -15 13 -27 -1 -11 3 -32 8 -46 6 -14 8
-30 6 -36 -2 -7 0 -15 6 -19 6 -3 11 -16 11 -29 0 -12 6 -31 14 -41 8 -11 12
-25 9 -32 -3 -7 0 -20 7 -28 7 -8 10 -24 7 -35 -3 -10 1 -24 9 -31 8 -6 14
-27 14 -45 0 -19 4 -34 9 -34 8 0 11 -11 26 -90 5 -31 23 -93 44 -155 4 -11 7
-31 7 -45 -1 -14 3 -28 8 -32 8 -5 41 -109 50 -158 2 -8 6 -22 9 -30 3 -8 10
-33 15 -55 6 -22 21 -77 35 -122 14 -46 23 -83 21 -83 -3 0 2 -13 11 -30 8
-16 14 -33 14 -37 -1 -4 0 -15 4 -23 11 -30 47 -145 47 -153 0 -4 6 -23 14
-42 8 -19 13 -35 11 -35 -3 0 0 -11 5 -24 11 -29 3 -39 -21 -25 -10 5 -31 11
-47 13 -20 2 -58 31 -127 97 -174 167 -202 193 -254 241 -28 26 -51 46 -51 44
0 -1 -26 22 -57 53 -31 31 -56 59 -55 64 1 4 -4 6 -10 5 -7 -2 -12 4 -10 12 2
8 0 12 -4 7 -8 -7 -23 6 -138 120 -35 34 -66 60 -70 56 -3 -3 -6 1 -6 11 0 9
-4 14 -10 11 -5 -3 -10 1 -10 9 0 9 -4 16 -8 16 -14 0 -72 56 -72 70 0 7 -3
10 -7 6 -4 -4 -25 11 -47 33 -103 101 -158 151 -167 151 -6 0 -7 5 -4 10 3 6
2 10 -4 10 -5 0 -38 28 -73 63 -158 154 -270 257 -278 257 -6 0 -10 4 -10 9 0
9 -31 40 -176 171 -27 25 -59 58 -72 74 -12 16 -22 25 -22 21 0 -4 -30 22 -66
59 -37 36 -69 66 -72 66 -10 0 -102 96 -102 108 0 6 -7 12 -15 12 -18 0 -56
40 -49 52 3 4 -2 8 -11 8 -10 0 -13 5 -9 12 4 6 3 8 -2 5 -6 -3 -68 50 -138
119 -70 68 -129 124 -131 124 -10 0 -73 69 -68 74 4 3 0 6 -9 6 -8 0 -24 10
-35 23 -38 41 -124 117 -134 117 -6 0 -7 5 -4 10 3 6 2 10 -2 10 -5 0 -33 24
-64 53 -91 85 -138 127 -144 127 -13 0 -30 26 -30 44 0 10 9 24 20 30 11 6 32
19 46 28 15 10 35 19 45 21 11 2 51 18 89 36 39 18 111 51 160 73 50 22 117
53 150 68 33 16 94 43 135 60 88 38 156 69 260 117 101 48 241 104 263 106 9
1 17 4 17 7 0 3 33 21 73 39 39 19 80 38 90 43 10 5 71 32 135 59 64 28 147
66 185 85 37 19 70 34 75 34 6 0 54 21 92 41 30 16 40 9 40 -26z m-10096
-2114 c11 -15 33 -33 51 -40 17 -6 41 -24 53 -41 16 -22 31 -30 52 -30 29 0
37 -15 31 -52 0 -5 2 -7 7 -6 10 4 102 -61 102 -72 0 -9 39 -25 53 -22 4 1 12
-9 19 -23 11 -24 41 -41 64 -37 15 3 26 -26 17 -41 -3 -7 -3 -9 1 -6 4 4 24
-8 44 -27 20 -19 41 -34 46 -34 5 0 19 -11 32 -25 13 -14 32 -25 44 -25 11 0
20 -6 20 -13 0 -21 43 -52 65 -49 15 2 21 -3 22 -20 1 -12 10 -28 20 -35 10
-7 23 -17 30 -23 7 -5 19 -10 28 -10 8 0 15 -3 15 -6 0 -8 -101 -104 -109
-104 -3 0 -18 -10 -31 -22 -14 -13 -32 -24 -40 -26 -8 -2 -23 -12 -33 -23 -10
-10 -21 -19 -26 -19 -4 0 -16 -8 -27 -17 -10 -10 -37 -31 -59 -48 -22 -16 -58
-46 -80 -67 -22 -21 -44 -38 -48 -38 -5 0 -25 -16 -45 -35 -20 -20 -47 -38
-59 -41 -13 -4 -23 -12 -23 -19 0 -8 -10 -17 -22 -21 -24 -7 -129 -83 -161
-116 -10 -10 -21 -18 -26 -18 -4 0 -27 -18 -51 -40 -24 -22 -49 -40 -56 -40
-7 0 -18 -9 -24 -20 -6 -11 -19 -20 -30 -20 -11 0 -24 -9 -30 -21 -7 -11 -14
-18 -17 -15 -5 4 -80 -49 -140 -99 -6 -5 -27 -22 -45 -37 -18 -15 -61 -50 -95
-78 -35 -29 -63 -48 -63 -44 0 4 -9 -1 -20 -11 -11 -10 -30 -23 -43 -30 -12
-6 -21 -17 -19 -24 1 -7 -2 -10 -7 -7 -5 3 -31 -11 -58 -32 -60 -48 -93 -66
-93 -52 0 5 -13 10 -30 10 -27 0 -30 3 -30 31 0 18 10 48 22 68 24 38 25 40
27 72 0 11 5 18 10 15 5 -4 8 2 7 11 -2 9 12 45 31 79 18 34 33 75 33 90 0 18
7 34 19 41 10 7 27 33 37 60 9 26 23 55 31 64 7 9 11 18 8 21 -3 3 1 11 10 18
8 7 15 27 15 45 0 18 6 38 13 44 8 6 22 30 32 53 38 91 49 116 98 218 27 57
51 111 52 120 1 8 8 14 14 12 6 -1 11 2 11 8 0 6 -4 10 -10 10 -15 0 -12 18 8
38 19 20 52 86 52 106 0 8 7 19 15 26 8 6 13 17 12 23 -1 7 4 11 11 9 8 -1 11
2 7 8 -3 5 17 58 46 117 28 59 52 113 53 119 1 7 7 18 12 25 15 19 27 50 28
71 1 9 4 20 9 24 4 4 7 17 7 30 0 12 7 24 15 28 8 3 15 12 15 20 0 7 7 27 15
42 8 16 15 36 15 45 0 16 9 29 19 29 3 0 15 -13 25 -29z m4021 -610 c-1 -25
-7 -57 -13 -71 -7 -14 -16 -50 -21 -80 -5 -30 -17 -75 -26 -100 -9 -25 -15
-58 -12 -75 3 -19 -1 -34 -10 -40 -20 -15 -33 -88 -20 -111 8 -14 5 -21 -11
-32 -15 -10 -22 -25 -22 -48 0 -18 -4 -35 -9 -38 -11 -7 -34 -123 -27 -135 3
-5 -1 -14 -9 -21 -8 -7 -15 -23 -15 -36 0 -13 -4 -24 -9 -24 -12 0 -11 -52 1
-67 6 -7 4 -14 -6 -20 -21 -12 -46 -96 -35 -116 6 -10 4 -21 -7 -32 -10 -9
-21 -35 -26 -58 -11 -56 -12 -59 -27 -85 -6 -12 -10 -36 -7 -52 3 -19 -1 -36
-11 -45 -8 -8 -11 -15 -7 -15 3 0 1 -6 -5 -13 -15 -19 -20 -58 -10 -84 6 -17
3 -26 -12 -37 -20 -13 -24 -38 -29 -148 0 -5 -7 -8 -15 -8 -11 0 -15 -11 -15
-39 0 -22 -4 -42 -9 -45 -4 -3 -6 -18 -3 -32 3 -17 1 -25 -5 -21 -12 8 -27
-58 -18 -74 4 -6 0 -18 -9 -28 -9 -10 -19 -31 -22 -47 -3 -16 -7 -30 -9 -33
-2 -2 0 -11 5 -21 7 -13 4 -24 -10 -40 -17 -20 -22 -31 -19 -42 0 -2 -4 -14
-9 -29 -7 -16 -7 -31 0 -43 7 -13 5 -23 -10 -39 -11 -12 -23 -44 -27 -72 -4
-27 -11 -55 -17 -62 -5 -7 -11 -30 -13 -53 -1 -22 -7 -46 -12 -53 -19 -25 -34
-86 -27 -112 4 -18 2 -30 -9 -38 -20 -15 -36 -77 -30 -111 4 -18 0 -28 -11
-32 -9 -3 -16 -18 -16 -33 0 -14 -8 -46 -17 -71 -9 -25 -17 -61 -18 -81 -1
-20 -6 -42 -11 -50 -26 -40 -31 -61 -29 -100 2 -27 -1 -47 -9 -53 -21 -17 -36
-74 -29 -108 4 -22 2 -33 -10 -40 -11 -5 -17 -22 -17 -41 0 -18 -5 -38 -11
-44 -19 -19 -38 -110 -25 -123 8 -8 7 -14 -5 -23 -25 -19 -48 -98 -35 -120 9
-14 7 -21 -7 -31 -10 -8 -22 -38 -28 -72 -6 -33 -18 -71 -26 -87 -8 -15 -13
-35 -12 -45 2 -9 -4 -33 -13 -52 -23 -51 -30 -90 -18 -104 7 -10 3 -20 -15
-40 -24 -26 -31 -53 -26 -105 1 -13 -5 -31 -14 -41 -8 -9 -17 -30 -20 -46 -2
-16 -11 -53 -20 -82 -9 -29 -15 -61 -13 -71 2 -10 -4 -26 -12 -35 -17 -21 -20
-35 -25 -100 -2 -27 -8 -52 -14 -55 -17 -11 -29 -56 -26 -99 2 -30 0 -42 -10
-42 -8 0 -17 -15 -20 -37 -4 -21 -10 -47 -15 -58 -21 -48 -30 -95 -25 -118 5
-17 2 -26 -9 -30 -9 -4 -16 -13 -16 -21 0 -8 -4 -17 -10 -21 -6 -3 -7 72 -5
202 3 114 5 208 6 208 0 0 2 79 3 175 2 96 6 198 10 225 5 37 17 507 17 678 0
11 5 15 12 10 7 -4 7 -1 -1 10 -8 10 -11 25 -7 38 4 12 8 59 10 104 1 45 5 86
8 92 4 6 9 125 12 265 3 139 7 273 10 298 3 25 8 126 10 225 3 99 7 207 9 240
1 33 6 133 9 222 3 89 8 167 12 173 3 6 8 90 10 188 2 97 7 202 11 232 3 30 8
123 11 205 2 83 6 168 8 190 2 22 5 140 7 262 l3 223 173 81 c96 44 195 90
220 101 26 10 70 30 97 43 28 13 86 40 130 60 44 20 98 45 120 55 82 39 170
77 176 76 4 -1 15 6 25 15 11 9 31 19 46 23 15 3 33 13 42 21 8 8 21 15 28 15
7 1 24 7 36 14 41 22 49 16 47 -33z"/>
</g>
</svg>
